<svg width="1250" height="1271" viewBox="0 0 1250 1271" fill="none" xmlns="http://www.w3.org/2000/svg">
<rect y="21" width="1250" height="1250" rx="45" fill="#99491A"/>
<rect width="1250" height="1250" rx="45" fill="#F3752B"/>
<rect x="24" y="25" width="1200" height="1200" rx="45" fill="#F3F3F3"/>
<rect x="366.857" y="825" width="133.333" height="57.1429" transform="rotate(-90 366.857 825)" stroke="black" stroke-width="4"/>
<rect x="309.714" y="825" width="133.333" height="57.1429" transform="rotate(-90 309.714 825)" stroke="black" stroke-width="4"/>
<rect x="252.571" y="825" width="133.333" height="57.1429" transform="rotate(-90 252.571 825)" fill="#00CC66" stroke="black" stroke-width="4"/>
<rect x="195.429" y="825" width="133.333" height="57.1429" transform="rotate(-90 195.429 825)" stroke="black" stroke-width="4"/>
<rect x="138.286" y="825" width="133.333" height="57.1429" transform="rotate(-90 138.286 825)" stroke="black" stroke-width="4"/>
<rect x="81.1428" y="825" width="133.333" height="57.1429" transform="rotate(-90 81.1428 825)" stroke="black" stroke-width="4"/>
<rect x="24" y="825" width="133.333" height="57.1429" transform="rotate(-90 24 825)" stroke="black" stroke-width="4"/>
<rect x="366.857" y="691.667" width="133.333" height="57.1429" transform="rotate(-90 366.857 691.667)" fill="#00CC66" stroke="black" stroke-width="4"/>
<rect x="309.714" y="691.667" width="133.333" height="57.1429" transform="rotate(-90 309.714 691.667)" fill="#00CC66" stroke="black" stroke-width="4"/>
<rect x="252.571" y="691.667" width="133.333" height="57.1429" transform="rotate(-90 252.571 691.667)" fill="#00CC66" stroke="black" stroke-width="4"/>
<rect x="195.429" y="691.667" width="133.333" height="57.1429" transform="rotate(-90 195.429 691.667)" fill="#00CC66" stroke="black" stroke-width="4"/>
<rect x="138.286" y="691.667" width="133.333" height="57.1429" transform="rotate(-90 138.286 691.667)" fill="#00CC66" stroke="black" stroke-width="4"/>
<rect x="81.1428" y="691.667" width="133.333" height="57.1429" transform="rotate(-90 81.1428 691.667)" fill="#00CC66" stroke="black" stroke-width="4"/>
<rect x="24" y="691.667" width="133.333" height="57.1429" transform="rotate(-90 24 691.667)" fill="#00CC66" stroke="black" stroke-width="4"/>
<rect x="366.857" y="558.333" width="133.333" height="57.1429" transform="rotate(-90 366.857 558.333)" stroke="black" stroke-width="4"/>
<rect x="309.714" y="558.333" width="133.333" height="57.1429" transform="rotate(-90 309.714 558.333)" stroke="black" stroke-width="4"/>
<rect x="252.571" y="558.333" width="133.333" height="57.1429" transform="rotate(-90 252.571 558.333)" fill="#8E8E8E" stroke="black" stroke-width="4"/>
<rect x="195.429" y="558.333" width="133.333" height="57.1429" transform="rotate(-90 195.429 558.333)" stroke="black" stroke-width="4"/>
<rect x="138.286" y="558.333" width="133.333" height="57.1429" transform="rotate(-90 138.286 558.333)" stroke="black" stroke-width="4"/>
<rect x="81.1428" y="558.333" width="133.333" height="57.1429" transform="rotate(-90 81.1428 558.333)" stroke="black" stroke-width="4"/>
<rect x="24" y="558.333" width="133.333" height="57.1429" transform="rotate(-90 24 558.333)" stroke="black" stroke-width="4"/>
<rect x="424" y="367.857" width="133.333" height="57.1429" stroke="black" stroke-width="4"/>
<rect x="424" y="310.714" width="133.333" height="57.1429" stroke="black" stroke-width="4"/>
<rect x="424" y="253.572" width="133.333" height="57.1429" fill="#AD2E24" stroke="black" stroke-width="4"/>
<rect x="424" y="196.429" width="133.333" height="57.1429" stroke="black" stroke-width="4"/>
<rect x="424" y="139.286" width="133.333" height="57.1429" stroke="black" stroke-width="4"/>
<rect x="424" y="82.1429" width="133.333" height="57.1429" stroke="black" stroke-width="4"/>
<rect x="424" y="25" width="133.333" height="57.1429" stroke="black" stroke-width="4"/>
<rect x="557.333" y="367.857" width="133.333" height="57.1429" fill="#AD2E24" stroke="black" stroke-width="4"/>
<rect x="557.333" y="310.714" width="133.333" height="57.1429" fill="#AD2E24" stroke="black" stroke-width="4"/>
<rect x="557.333" y="253.572" width="133.333" height="57.1429" fill="#AD2E24" stroke="black" stroke-width="4"/>
<rect x="557.333" y="196.429" width="133.333" height="57.1429" fill="#AD2E24" stroke="black" stroke-width="4"/>
<rect x="557.333" y="139.286" width="133.333" height="57.1429" fill="#AD2E24" stroke="black" stroke-width="4"/>
<rect x="557.333" y="82.1429" width="133.333" height="57.1429" fill="#AD2E24" stroke="black" stroke-width="4"/>
<rect x="557.333" y="25" width="133.333" height="57.1429" fill="#AD2E24" stroke="black" stroke-width="4"/>
<rect x="690.667" y="367.857" width="133.333" height="57.1429" stroke="black" stroke-width="4"/>
<rect x="690.667" y="310.714" width="133.333" height="57.1429" stroke="black" stroke-width="4"/>
<rect x="690.667" y="253.572" width="133.333" height="57.1429" fill="#8E8E8E" stroke="black" stroke-width="4"/>
<rect x="690.667" y="196.429" width="133.333" height="57.1429" stroke="black" stroke-width="4"/>
<rect x="690.667" y="139.286" width="133.333" height="57.1429" stroke="black" stroke-width="4"/>
<rect x="690.667" y="82.1429" width="133.333" height="57.1429" stroke="black" stroke-width="4"/>
<rect x="690.667" y="25" width="133.333" height="57.1429" stroke="black" stroke-width="4"/>
<rect x="1166.86" y="825" width="133.333" height="57.1429" transform="rotate(-90 1166.86 825)" stroke="black" stroke-width="4"/>
<rect x="1109.71" y="825" width="133.333" height="57.1429" transform="rotate(-90 1109.71 825)" stroke="black" stroke-width="4"/>
<rect x="1052.57" y="825" width="133.333" height="57.1429" transform="rotate(-90 1052.57 825)" stroke="black" stroke-width="4"/>
<rect x="995.429" y="825" width="133.333" height="57.1429" transform="rotate(-90 995.429 825)" stroke="black" stroke-width="4"/>
<rect x="938.286" y="825" width="133.333" height="57.1429" transform="rotate(-90 938.286 825)" fill="#8E8E8E" stroke="black" stroke-width="4"/>
<rect x="881.143" y="825" width="133.333" height="57.1429" transform="rotate(-90 881.143 825)" stroke="black" stroke-width="4"/>
<rect x="824" y="825" width="133.333" height="57.1429" transform="rotate(-90 824 825)" stroke="black" stroke-width="4"/>
<rect x="1166.86" y="691.667" width="133.333" height="57.1429" transform="rotate(-90 1166.86 691.667)" fill="#33658A" stroke="black" stroke-width="4"/>
<rect x="1109.71" y="691.667" width="133.333" height="57.1429" transform="rotate(-90 1109.71 691.667)" fill="#33658A" stroke="black" stroke-width="4"/>
<rect x="1052.57" y="691.667" width="133.333" height="57.1429" transform="rotate(-90 1052.57 691.667)" fill="#33658A" stroke="black" stroke-width="4"/>
<rect x="995.429" y="691.667" width="133.333" height="57.1429" transform="rotate(-90 995.429 691.667)" fill="#33658A" stroke="black" stroke-width="4"/>
<rect x="938.286" y="691.667" width="133.333" height="57.1429" transform="rotate(-90 938.286 691.667)" fill="#33658A" stroke="black" stroke-width="4"/>
<rect x="881.143" y="691.667" width="133.333" height="57.1429" transform="rotate(-90 881.143 691.667)" fill="#33658A" stroke="black" stroke-width="4"/>
<rect x="824" y="691.667" width="133.333" height="57.1429" transform="rotate(-90 824 691.667)" fill="#33658A" stroke="black" stroke-width="4"/>
<rect x="1166.86" y="558.333" width="133.333" height="57.1429" transform="rotate(-90 1166.86 558.333)" stroke="black" stroke-width="4"/>
<rect x="1109.71" y="558.333" width="133.333" height="57.1429" transform="rotate(-90 1109.71 558.333)" stroke="black" stroke-width="4"/>
<rect x="1052.57" y="558.333" width="133.333" height="57.1429" transform="rotate(-90 1052.57 558.333)" stroke="black" stroke-width="4"/>
<rect x="995.429" y="558.333" width="133.333" height="57.1429" transform="rotate(-90 995.429 558.333)" stroke="black" stroke-width="4"/>
<rect x="938.286" y="558.333" width="133.333" height="57.1429" transform="rotate(-90 938.286 558.333)" fill="#33658A" stroke="black" stroke-width="4"/>
<rect x="881.143" y="558.333" width="133.333" height="57.1429" transform="rotate(-90 881.143 558.333)" stroke="black" stroke-width="4"/>
<rect x="824" y="558.333" width="133.333" height="57.1429" transform="rotate(-90 824 558.333)" stroke="black" stroke-width="4"/>
<rect x="424" y="1167.86" width="133.333" height="57.1429" stroke="black" stroke-width="4"/>
<rect x="424" y="1110.71" width="133.333" height="57.1429" stroke="black" stroke-width="4"/>
<rect x="424" y="1053.57" width="133.333" height="57.1429" stroke="black" stroke-width="4"/>
<rect x="424" y="996.428" width="133.333" height="57.1429" stroke="black" stroke-width="4"/>
<rect x="424" y="939.286" width="133.333" height="57.1429" fill="#8E8E8E" stroke="black" stroke-width="4"/>
<rect x="424" y="882.143" width="133.333" height="57.1429" stroke="black" stroke-width="4"/>
<rect x="424" y="825" width="133.333" height="57.1429" stroke="black" stroke-width="4"/>
<rect x="557.333" y="1167.86" width="133.333" height="57.1429" fill="#E9CE2C" stroke="black" stroke-width="4"/>
<rect x="557.333" y="1110.71" width="133.333" height="57.1429" fill="#E9CE2C" stroke="black" stroke-width="4"/>
<rect x="557.333" y="1053.57" width="133.333" height="57.1429" fill="#E9CE2C" stroke="black" stroke-width="4"/>
<rect x="557.333" y="996.428" width="133.333" height="57.1429" fill="#E9CE2C" stroke="black" stroke-width="4"/>
<rect x="557.333" y="939.286" width="133.333" height="57.1429" fill="#E9CE2C" stroke="black" stroke-width="4"/>
<rect x="557.333" y="882.143" width="133.333" height="57.1429" fill="#E9CE2C" stroke="black" stroke-width="4"/>
<rect x="557.333" y="825" width="133.333" height="57.1429" fill="#E9CE2C" stroke="black" stroke-width="4"/>
<rect x="690.667" y="1167.86" width="133.333" height="57.1429" stroke="black" stroke-width="4"/>
<rect x="690.667" y="1110.71" width="133.333" height="57.1429" stroke="black" stroke-width="4"/>
<rect x="690.667" y="1053.57" width="133.333" height="57.1429" stroke="black" stroke-width="4"/>
<rect x="690.667" y="996.428" width="133.333" height="57.1429" stroke="black" stroke-width="4"/>
<rect x="690.667" y="939.286" width="133.333" height="57.1429" fill="#E9CE2C" stroke="black" stroke-width="4"/>
<rect x="690.667" y="882.143" width="133.333" height="57.1429" stroke="black" stroke-width="4"/>
<rect x="690.667" y="825" width="133.333" height="57.1429" stroke="black" stroke-width="4"/>
<path d="M24 825H424V1225H69C44.1472 1225 24 1204.85 24 1180V825Z" fill="#00CC66" stroke="black" stroke-width="4"/>
<rect x="46" y="847" width="356" height="356" rx="178" stroke="#017C3F" stroke-width="4"/>
<circle cx="281.143" cy="1082.14" r="31.746" fill="#017C3F"/>
<circle cx="281.143" cy="967.857" r="31.746" fill="#017C3F"/>
<circle cx="166.857" cy="967.857" r="31.746" fill="#017C3F"/>
<circle cx="166.857" cy="1082.14" r="31.746" fill="#017C3F"/>
<path d="M24 70C24 45.1472 44.1472 25 69 25H424V425H24V70Z" fill="#AD2E24" stroke="black" stroke-width="4"/>
<rect x="46" y="47" width="356" height="356" rx="178" stroke="#7E2A24" stroke-width="4"/>
<circle cx="281.143" cy="282.143" r="31.746" fill="#7E2A24"/>
<circle cx="281.143" cy="167.857" r="31.746" fill="#7E2A24"/>
<circle cx="166.857" cy="167.857" r="31.746" fill="#7E2A24"/>
<circle cx="166.857" cy="282.143" r="31.746" fill="#7E2A24"/>
<path d="M24 70C24 45.1472 44.1472 25 69 25H424V425H24V70Z" fill="#AD2E24" stroke="black" stroke-width="4"/>
<rect x="46" y="47" width="356" height="356" rx="178" stroke="#7E2A24" stroke-width="4"/>
<circle cx="281.143" cy="282.143" r="31.746" fill="#7E2A24"/>
<circle cx="281.143" cy="167.857" r="31.746" fill="#7E2A24"/>
<circle cx="166.857" cy="167.857" r="31.746" fill="#7E2A24"/>
<circle cx="166.857" cy="282.143" r="31.746" fill="#7E2A24"/>
<path d="M824 25H1179C1203.85 25 1224 45.1472 1224 70V425H824V25Z" fill="#33658A" stroke="black" stroke-width="4"/>
<path d="M1024 47C1122.31 47 1202 126.693 1202 225C1202 323.307 1122.31 403 1024 403C925.693 403 846 323.307 846 225C846 126.693 925.693 47 1024 47Z" stroke="#264E6B" stroke-width="4"/>
<circle cx="1081.14" cy="282.143" r="31.746" fill="#264E6B"/>
<circle cx="1081.14" cy="167.857" r="31.746" fill="#264E6B"/>
<circle cx="966.857" cy="167.857" r="31.746" fill="#264E6B"/>
<circle cx="966.857" cy="282.143" r="31.746" fill="#264E6B"/>
<path d="M824 825H1224V1180C1224 1204.85 1203.85 1225 1179 1225H824V825Z" fill="#E9CE2C" stroke="black" stroke-width="4"/>
<path d="M1024 847C1122.31 847 1202 926.693 1202 1025C1202 1123.31 1122.31 1203 1024 1203C925.693 1203 846 1123.31 846 1025C846 926.693 925.693 847 1024 847Z" stroke="#9A8923" stroke-width="4"/>
<circle cx="1081.14" cy="1082.14" r="31.746" fill="#9A8923"/>
<circle cx="1081.14" cy="967.857" r="31.746" fill="#9A8923"/>
<circle cx="966.857" cy="967.857" r="31.746" fill="#9A8923"/>
<circle cx="966.857" cy="1082.14" r="31.746" fill="#9A8923"/>
<line x1="425.205" y1="823.665" x2="822.665" y2="426.205" stroke="black" stroke-width="4"/>
<line x1="425.613" y1="426.562" x2="822.755" y2="823.705" stroke="black" stroke-width="4"/>
<rect x="424" y="691.667" width="133.333" height="57.1429" transform="rotate(-90 424 691.667)" fill="#00CC66" stroke="black" stroke-width="4"/>
<rect x="557.333" y="425" width="133.333" height="57.1429" fill="#AD2E24" stroke="black" stroke-width="4"/>
<rect x="766.857" y="691.667" width="133.333" height="57.1429" transform="rotate(-90 766.857 691.667)" fill="#33658A" stroke="black" stroke-width="4"/>
<rect x="557.333" y="767.857" width="133.333" height="57.1429" fill="#E9CE2C" stroke="black" stroke-width="4"/>
<rect x="481.143" y="482.143" width="285.714" height="285.714" stroke="black" stroke-width="4"/>
<path d="M624 628L763.43 766H484.57L624 628Z" fill="#E9CE2C"/>
<path d="M624 622L484.57 484H763.43L624 622Z" fill="#AD2E24"/>
<path d="M626 625L764.75 486.436V763.564L626 625Z" fill="#33658A"/>
<path d="M622 624.5L483.25 762.631V486.369L622 624.5Z" fill="#00CC66"/>
<circle cx="966.857" cy="491.667" r="22.2222" fill="#264E6B" stroke="black" stroke-width="4"/>
<circle cx="1195.43" cy="625.635" r="22.2222" fill="#D9D9D9" stroke="black" stroke-width="4"/>
<circle cx="966.857" cy="758.333" r="22.2222" fill="#D9D9D9" stroke="black" stroke-width="4"/>
<circle cx="757.333" cy="967.857" r="22.2222" fill="#9A8923" stroke="black" stroke-width="4"/>
<circle cx="491.302" cy="967.857" r="22.2222" fill="#D9D9D9" stroke="black" stroke-width="4"/>
<circle cx="281.143" cy="758.333" r="22.2222" fill="#017C3F" stroke="black" stroke-width="4"/>
<circle cx="52.5714" cy="625.635" r="22.2222" fill="#D9D9D9" stroke="black" stroke-width="4"/>
<circle cx="281.143" cy="491.667" r="22.2222" fill="#D9D9D9" stroke="black" stroke-width="4"/>
<circle cx="491.302" cy="282.143" r="22.2222" fill="#7E2A24" stroke="black" stroke-width="4"/>
<circle cx="624" cy="53.5715" r="22.2222" fill="#D9D9D9" stroke="black" stroke-width="4"/>
<circle cx="624" cy="1196.43" r="22.2222" fill="#D9D9D9" stroke="black" stroke-width="4"/>
<circle cx="757.333" cy="282.143" r="22.2222" fill="#D9D9D9" stroke="black" stroke-width="4"/>
<line x1="741" y1="281.5" x2="772" y2="281.5" stroke="black"/>
<line x1="741" y1="224.5" x2="772" y2="224.5" stroke="black"/>
<line x1="741" y1="338.5" x2="772" y2="338.5" stroke="black"/>
<line x1="741" y1="395.5" x2="772" y2="395.5" stroke="black"/>
<line x1="726" y1="452.5" x2="757" y2="452.5" stroke="black"/>
<line x1="951" y1="281.5" x2="982" y2="281.5" stroke="black"/>
<line x1="1065" y1="281.5" x2="1096" y2="281.5" stroke="black"/>
<line x1="1065" y1="167.5" x2="1096" y2="167.5" stroke="black"/>
<line x1="951" y1="167.5" x2="982" y2="167.5" stroke="black"/>
<line x1="266" y1="167.5" x2="297" y2="167.5" stroke="black"/>
<line x1="152" y1="167.5" x2="183" y2="167.5" stroke="black"/>
<line x1="152" y1="167.5" x2="183" y2="167.5" stroke="black"/>
<line x1="152" y1="281.5" x2="183" y2="281.5" stroke="black"/>
<line x1="266" y1="281.5" x2="297" y2="281.5" stroke="black"/>
<line x1="741" y1="167.5" x2="772" y2="167.5" stroke="black"/>
<line x1="741" y1="110.5" x2="772" y2="110.5" stroke="black"/>
<line x1="741" y1="53.5" x2="772" y2="53.5" stroke="black"/>
<line x1="608" y1="53.5" x2="639" y2="53.5" stroke="black"/>
<line x1="610" y1="110.5" x2="641" y2="110.5" stroke="black"/>
<line x1="610" y1="167.5" x2="641" y2="167.5" stroke="black"/>
<line x1="610" y1="224.5" x2="641" y2="224.5" stroke="black"/>
<line x1="610" y1="281.5" x2="641" y2="281.5" stroke="black"/>
<line x1="610" y1="338.5" x2="641" y2="338.5" stroke="black"/>
<line x1="610" y1="395.5" x2="641" y2="395.5" stroke="black"/>
<line x1="610" y1="452.5" x2="641" y2="452.5" stroke="black"/>
<line x1="476" y1="53.5" x2="507" y2="53.5" stroke="black"/>
<line x1="476" y1="110.5" x2="507" y2="110.5" stroke="black"/>
<line x1="476" y1="167.5" x2="507" y2="167.5" stroke="black"/>
<line x1="476" y1="224.5" x2="507" y2="224.5" stroke="black"/>
<line x1="476" y1="281.5" x2="507" y2="281.5" stroke="black"/>
<line x1="476" y1="338.5" x2="507" y2="338.5" stroke="black"/>
<line x1="476" y1="395.5" x2="507" y2="395.5" stroke="black"/>
<line x1="492" y1="453.5" x2="523" y2="453.5" stroke="black"/>
<line x1="438" y1="514.5" x2="469" y2="514.5" stroke="black"/>
<line x1="380" y1="491.5" x2="411" y2="491.5" stroke="black"/>
<line x1="323" y1="491.5" x2="354" y2="491.5" stroke="black"/>
<line x1="266" y1="491.5" x2="297" y2="491.5" stroke="black"/>
<line x1="209" y1="491.5" x2="240" y2="491.5" stroke="black"/>
<line x1="152" y1="491.5" x2="183" y2="491.5" stroke="black"/>
<line x1="95" y1="491.5" x2="126" y2="491.5" stroke="black"/>
<line x1="38" y1="491.5" x2="69" y2="491.5" stroke="black"/>
<line x1="38" y1="625.5" x2="69" y2="625.5" stroke="black"/>
<line x1="95" y1="624.5" x2="126" y2="624.5" stroke="black"/>
<line x1="152" y1="624.5" x2="183" y2="624.5" stroke="black"/>
<line x1="209" y1="624.5" x2="240" y2="624.5" stroke="black"/>
<line x1="266" y1="624.5" x2="297" y2="624.5" stroke="black"/>
<line x1="323" y1="624.5" x2="354" y2="624.5" stroke="black"/>
<line x1="380" y1="624.5" x2="411" y2="624.5" stroke="black"/>
<line x1="437" y1="624.5" x2="468" y2="624.5" stroke="black"/>
<line x1="38" y1="757.5" x2="69" y2="757.5" stroke="black"/>
<line x1="95" y1="757.5" x2="126" y2="757.5" stroke="black"/>
<line x1="152" y1="757.5" x2="183" y2="757.5" stroke="black"/>
<line x1="152" y1="967.5" x2="183" y2="967.5" stroke="black"/>
<line x1="152" y1="1081.5" x2="183" y2="1081.5" stroke="black"/>
<line x1="266" y1="967.5" x2="297" y2="967.5" stroke="black"/>
<line x1="266" y1="1081.5" x2="297" y2="1081.5" stroke="black"/>
<line x1="951" y1="1081.5" x2="982" y2="1081.5" stroke="black"/>
<line x1="1065" y1="1081.5" x2="1096" y2="1081.5" stroke="black"/>
<line x1="1065" y1="967.5" x2="1096" y2="967.5" stroke="black"/>
<line x1="951" y1="967.5" x2="982" y2="967.5" stroke="black"/>
<line x1="209" y1="757.5" x2="240" y2="757.5" stroke="black"/>
<line x1="266" y1="757.5" x2="297" y2="757.5" stroke="black"/>
<line x1="323" y1="757.5" x2="354" y2="757.5" stroke="black"/>
<line x1="380" y1="757.5" x2="411" y2="757.5" stroke="black"/>
<line x1="437" y1="735.5" x2="468" y2="735.5" stroke="black"/>
<line x1="491" y1="795.5" x2="522" y2="795.5" stroke="black"/>
<line x1="476" y1="853.5" x2="507" y2="853.5" stroke="black"/>
<line x1="476" y1="910.5" x2="507" y2="910.5" stroke="black"/>
<line x1="476" y1="967.5" x2="507" y2="967.5" stroke="black"/>
<line x1="476" y1="1024.5" x2="507" y2="1024.5" stroke="black"/>
<line x1="476" y1="1081.5" x2="507" y2="1081.5" stroke="black"/>
<line x1="476" y1="1138.5" x2="507" y2="1138.5" stroke="black"/>
<line x1="476" y1="1195.5" x2="507" y2="1195.5" stroke="black"/>
<line x1="609" y1="1195.5" x2="640" y2="1195.5" stroke="black"/>
<line x1="609" y1="1138.5" x2="640" y2="1138.5" stroke="black"/>
<line x1="609" y1="1081.5" x2="640" y2="1081.5" stroke="black"/>
<line x1="609" y1="1024.5" x2="640" y2="1024.5" stroke="black"/>
<line x1="609" y1="967.5" x2="640" y2="967.5" stroke="black"/>
<line x1="609" y1="910.5" x2="640" y2="910.5" stroke="black"/>
<line x1="609" y1="853.5" x2="640" y2="853.5" stroke="black"/>
<line x1="609" y1="796.5" x2="640" y2="796.5" stroke="black"/>
<line x1="741" y1="1195.5" x2="772" y2="1195.5" stroke="black"/>
<line x1="741" y1="1138.5" x2="772" y2="1138.5" stroke="black"/>
<line x1="741" y1="1081.5" x2="772" y2="1081.5" stroke="black"/>
<line x1="741" y1="1024.5" x2="772" y2="1024.5" stroke="black"/>
<line x1="741" y1="967.5" x2="772" y2="967.5" stroke="black"/>
<line x1="741" y1="910.5" x2="772" y2="910.5" stroke="black"/>
<line x1="741" y1="853.5" x2="772" y2="853.5" stroke="black"/>
<line x1="729" y1="795.5" x2="760" y2="795.5" stroke="black"/>
<line x1="779" y1="734.5" x2="810" y2="734.5" stroke="black"/>
<line x1="837" y1="757.5" x2="868" y2="757.5" stroke="black"/>
<line x1="894" y1="757.5" x2="925" y2="757.5" stroke="black"/>
<line x1="951" y1="757.5" x2="982" y2="757.5" stroke="black"/>
<line x1="1008" y1="757.5" x2="1039" y2="757.5" stroke="black"/>
<line x1="1065" y1="757.5" x2="1096" y2="757.5" stroke="black"/>
<line x1="1122" y1="757.5" x2="1153" y2="757.5" stroke="black"/>
<line x1="1179" y1="757.5" x2="1210" y2="757.5" stroke="black"/>
<line x1="1179" y1="624.5" x2="1210" y2="624.5" stroke="black"/>
<line x1="1122" y1="624.5" x2="1153" y2="624.5" stroke="black"/>
<line x1="1065" y1="624.5" x2="1096" y2="624.5" stroke="black"/>
<line x1="1008" y1="624.5" x2="1039" y2="624.5" stroke="black"/>
<line x1="951" y1="624.5" x2="982" y2="624.5" stroke="black"/>
<line x1="894" y1="624.5" x2="925" y2="624.5" stroke="black"/>
<line x1="837" y1="624.5" x2="868" y2="624.5" stroke="black"/>
<line x1="780" y1="624.5" x2="811" y2="624.5" stroke="black"/>
<line x1="703" y1="624.5" x2="734" y2="624.5" stroke="black"/>
<line x1="526" y1="624.5" x2="557" y2="624.5" stroke="black"/>
<line x1="611" y1="531.5" x2="642" y2="531.5" stroke="black"/>
<line x1="610" y1="704.5" x2="641" y2="704.5" stroke="black"/>
<line x1="1179" y1="491.5" x2="1210" y2="491.5" stroke="black"/>
<line x1="1122" y1="491.5" x2="1153" y2="491.5" stroke="black"/>
<line x1="1065" y1="491.5" x2="1096" y2="491.5" stroke="black"/>
<line x1="1008" y1="491.5" x2="1039" y2="491.5" stroke="black"/>
<line x1="951" y1="491.5" x2="982" y2="491.5" stroke="black"/>
<line x1="894" y1="491.5" x2="925" y2="491.5" stroke="black"/>
<line x1="837" y1="491.5" x2="868" y2="491.5" stroke="black"/>
<line x1="778" y1="506.5" x2="809" y2="506.5" stroke="black"/>
<line x1="757.5" y1="267" x2="757.5" y2="297" stroke="black"/>
<line x1="757.5" y1="210" x2="757.5" y2="240" stroke="black"/>
<line x1="757.5" y1="324" x2="757.5" y2="354" stroke="black"/>
<line x1="757.5" y1="381" x2="757.5" y2="411" stroke="black"/>
<line x1="742.5" y1="438" x2="742.5" y2="468" stroke="black"/>
<line x1="967.5" y1="267" x2="967.5" y2="297" stroke="black"/>
<line x1="1081.5" y1="267" x2="1081.5" y2="297" stroke="black"/>
<path d="M1081.5 153V183" stroke="black"/>
<line x1="967.5" y1="153" x2="967.5" y2="183" stroke="black"/>
<line x1="281.5" y1="153" x2="281.5" y2="183" stroke="black"/>
<line x1="167.5" y1="153" x2="167.5" y2="183" stroke="black"/>
<line x1="167.5" y1="153" x2="167.5" y2="183" stroke="black"/>
<line x1="167.5" y1="267" x2="167.5" y2="297" stroke="black"/>
<line x1="281.5" y1="267" x2="281.5" y2="297" stroke="black"/>
<line x1="757.5" y1="153" x2="757.5" y2="183" stroke="black"/>
<line x1="757.5" y1="96" x2="757.5" y2="126" stroke="black"/>
<path d="M757.5 39V69" stroke="black"/>
<line x1="624.5" y1="39" x2="624.5" y2="69" stroke="black"/>
<line x1="626.5" y1="96" x2="626.5" y2="126" stroke="black"/>
<line x1="626.5" y1="153" x2="626.5" y2="183" stroke="black"/>
<line x1="626.5" y1="210" x2="626.5" y2="240" stroke="black"/>
<line x1="626.5" y1="267" x2="626.5" y2="297" stroke="black"/>
<line x1="626.5" y1="324" x2="626.5" y2="354" stroke="black"/>
<line x1="626.5" y1="381" x2="626.5" y2="411" stroke="black"/>
<line x1="626.5" y1="438" x2="626.5" y2="468" stroke="black"/>
<line x1="491.5" y1="39" x2="491.5" y2="69" stroke="black"/>
<line x1="491.5" y1="96" x2="491.5" y2="126" stroke="black"/>
<line x1="491.5" y1="153" x2="491.5" y2="183" stroke="black"/>
<line x1="491.5" y1="210" x2="491.5" y2="240" stroke="black"/>
<line x1="491.5" y1="267" x2="491.5" y2="297" stroke="black"/>
<line x1="491.5" y1="324" x2="491.5" y2="354" stroke="black"/>
<line x1="491.5" y1="381" x2="491.5" y2="411" stroke="black"/>
<line x1="507.5" y1="439" x2="507.5" y2="469" stroke="black"/>
<line x1="453.5" y1="500" x2="453.5" y2="530" stroke="black"/>
<line x1="395.5" y1="477" x2="395.5" y2="507" stroke="black"/>
<line x1="338.5" y1="477" x2="338.5" y2="507" stroke="black"/>
<line x1="281.5" y1="477" x2="281.5" y2="507" stroke="black"/>
<line x1="224.5" y1="477" x2="224.5" y2="507" stroke="black"/>
<line x1="167.5" y1="477" x2="167.5" y2="507" stroke="black"/>
<line x1="110.5" y1="477" x2="110.5" y2="507" stroke="black"/>
<line x1="53.5" y1="477" x2="53.5" y2="507" stroke="black"/>
<line x1="53.5" y1="611" x2="53.5" y2="641" stroke="black"/>
<line x1="110.5" y1="610" x2="110.5" y2="640" stroke="black"/>
<line x1="110.5" y1="610" x2="110.5" y2="640" stroke="black"/>
<line x1="167.5" y1="610" x2="167.5" y2="640" stroke="black"/>
<line x1="224.5" y1="610" x2="224.5" y2="640" stroke="black"/>
<line x1="281.5" y1="610" x2="281.5" y2="640" stroke="black"/>
<line x1="338.5" y1="610" x2="338.5" y2="640" stroke="black"/>
<line x1="395.5" y1="610" x2="395.5" y2="640" stroke="black"/>
<line x1="452.5" y1="610" x2="452.5" y2="640" stroke="black"/>
<line x1="53.5" y1="743" x2="53.5" y2="773" stroke="black"/>
<line x1="110.5" y1="743" x2="110.5" y2="773" stroke="black"/>
<line x1="167.5" y1="743" x2="167.5" y2="773" stroke="black"/>
<line x1="167.5" y1="953" x2="167.5" y2="983" stroke="black"/>
<line x1="167.5" y1="1067" x2="167.5" y2="1097" stroke="black"/>
<line x1="281.5" y1="953" x2="281.5" y2="983" stroke="black"/>
<line x1="281.5" y1="1067" x2="281.5" y2="1097" stroke="black"/>
<line x1="966.5" y1="1067" x2="966.5" y2="1097" stroke="black"/>
<line x1="1080.5" y1="1067" x2="1080.5" y2="1097" stroke="black"/>
<line x1="1080.5" y1="953" x2="1080.5" y2="983" stroke="black"/>
<line x1="966.5" y1="953" x2="966.5" y2="983" stroke="black"/>
<line x1="224.5" y1="743" x2="224.5" y2="773" stroke="black"/>
<line x1="281.5" y1="743" x2="281.5" y2="773" stroke="black"/>
<line x1="338.5" y1="743" x2="338.5" y2="773" stroke="black"/>
<line x1="395.5" y1="743" x2="395.5" y2="773" stroke="black"/>
<line x1="452.5" y1="721" x2="452.5" y2="751" stroke="black"/>
<line x1="506.5" y1="781" x2="506.5" y2="811" stroke="black"/>
<line x1="491.5" y1="839" x2="491.5" y2="869" stroke="black"/>
<line x1="491.5" y1="896" x2="491.5" y2="926" stroke="black"/>
<line x1="491.5" y1="953" x2="491.5" y2="983" stroke="black"/>
<line x1="491.5" y1="1010" x2="491.5" y2="1040" stroke="black"/>
<line x1="491.5" y1="1067" x2="491.5" y2="1097" stroke="black"/>
<line x1="491.5" y1="1124" x2="491.5" y2="1154" stroke="black"/>
<line x1="491.5" y1="1181" x2="491.5" y2="1211" stroke="black"/>
<line x1="624.5" y1="1181" x2="624.5" y2="1211" stroke="black"/>
<line x1="624.5" y1="1124" x2="624.5" y2="1154" stroke="black"/>
<line x1="624.5" y1="1067" x2="624.5" y2="1097" stroke="black"/>
<line x1="624.5" y1="1010" x2="624.5" y2="1040" stroke="black"/>
<line x1="624.5" y1="953" x2="624.5" y2="983" stroke="black"/>
<line x1="624.5" y1="896" x2="624.5" y2="926" stroke="black"/>
<line x1="624.5" y1="839" x2="624.5" y2="869" stroke="black"/>
<line x1="624.5" y1="782" x2="624.5" y2="812" stroke="black"/>
<line x1="756.5" y1="1181" x2="756.5" y2="1211" stroke="black"/>
<line x1="756.5" y1="1124" x2="756.5" y2="1154" stroke="black"/>
<line x1="756.5" y1="1067" x2="756.5" y2="1097" stroke="black"/>
<line x1="756.5" y1="1010" x2="756.5" y2="1040" stroke="black"/>
<line x1="756.5" y1="953" x2="756.5" y2="983" stroke="black"/>
<line x1="756.5" y1="896" x2="756.5" y2="926" stroke="black"/>
<line x1="756.5" y1="839" x2="756.5" y2="869" stroke="black"/>
<line x1="744.5" y1="781" x2="744.5" y2="811" stroke="black"/>
<line x1="794.5" y1="720" x2="794.5" y2="750" stroke="black"/>
<line x1="852.5" y1="743" x2="852.5" y2="773" stroke="black"/>
<line x1="909.5" y1="743" x2="909.5" y2="773" stroke="black"/>
<line x1="966.5" y1="743" x2="966.5" y2="773" stroke="black"/>
<line x1="1023.5" y1="743" x2="1023.5" y2="773" stroke="black"/>
<line x1="1080.5" y1="743" x2="1080.5" y2="773" stroke="black"/>
<line x1="1137.5" y1="743" x2="1137.5" y2="773" stroke="black"/>
<line x1="1194.5" y1="743" x2="1194.5" y2="773" stroke="black"/>
<line x1="1194.5" y1="610" x2="1194.5" y2="640" stroke="black"/>
<line x1="1137.5" y1="610" x2="1137.5" y2="640" stroke="black"/>
<line x1="1080.5" y1="610" x2="1080.5" y2="640" stroke="black"/>
<line x1="1023.5" y1="610" x2="1023.5" y2="640" stroke="black"/>
<line x1="966.5" y1="610" x2="966.5" y2="640" stroke="black"/>
<line x1="909.5" y1="610" x2="909.5" y2="640" stroke="black"/>
<line x1="852.5" y1="610" x2="852.5" y2="640" stroke="black"/>
<line x1="795.5" y1="610" x2="795.5" y2="640" stroke="black"/>
<line x1="718.5" y1="610" x2="718.5" y2="640" stroke="black"/>
<line x1="541.5" y1="610" x2="541.5" y2="640" stroke="black"/>
<line x1="626.5" y1="517" x2="626.5" y2="547" stroke="black"/>
<line x1="625.5" y1="690" x2="625.5" y2="720" stroke="black"/>
<line x1="1194.5" y1="477" x2="1194.5" y2="507" stroke="black"/>
<line x1="1137.5" y1="477" x2="1137.5" y2="507" stroke="black"/>
<line x1="1080.5" y1="477" x2="1080.5" y2="507" stroke="black"/>
<line x1="1023.5" y1="477" x2="1023.5" y2="507" stroke="black"/>
<line x1="966.5" y1="477" x2="966.5" y2="507" stroke="black"/>
<line x1="909.5" y1="477" x2="909.5" y2="507" stroke="black"/>
<line x1="852.5" y1="477" x2="852.5" y2="507" stroke="black"/>
<line x1="793.5" y1="492" x2="793.5" y2="522" stroke="black"/>
</svg>
