<svg width="1250" height="1271" viewBox="0 0 1250 1271" fill="none" xmlns="http://www.w3.org/2000/svg">
<rect y="21" width="1250" height="1250" rx="45" fill="#99491A"/>
<rect width="1250" height="1250" rx="45" fill="#F3752B"/>
<rect x="24" y="25" width="1200" height="1200" rx="45" fill="#F3F3F3"/>
<rect x="366.857" y="825" width="133.333" height="57.1429" transform="rotate(-90 366.857 825)" stroke="black" stroke-width="4"/>
<rect x="309.714" y="825" width="133.333" height="57.1429" transform="rotate(-90 309.714 825)" stroke="black" stroke-width="4"/>
<rect x="252.571" y="825" width="133.333" height="57.1429" transform="rotate(-90 252.571 825)" fill="#00CC66" stroke="black" stroke-width="4"/>
<rect x="195.429" y="825" width="133.333" height="57.1429" transform="rotate(-90 195.429 825)" stroke="black" stroke-width="4"/>
<rect x="138.286" y="825" width="133.333" height="57.1429" transform="rotate(-90 138.286 825)" stroke="black" stroke-width="4"/>
<rect x="81.1428" y="825" width="133.333" height="57.1429" transform="rotate(-90 81.1428 825)" stroke="black" stroke-width="4"/>
<rect x="24" y="825" width="133.333" height="57.1429" transform="rotate(-90 24 825)" stroke="black" stroke-width="4"/>
<rect x="366.857" y="691.667" width="133.333" height="57.1429" transform="rotate(-90 366.857 691.667)" fill="#00CC66" stroke="black" stroke-width="4"/>
<rect x="309.714" y="691.667" width="133.333" height="57.1429" transform="rotate(-90 309.714 691.667)" fill="#00CC66" stroke="black" stroke-width="4"/>
<rect x="252.571" y="691.667" width="133.333" height="57.1429" transform="rotate(-90 252.571 691.667)" fill="#00CC66" stroke="black" stroke-width="4"/>
<rect x="195.429" y="691.667" width="133.333" height="57.1429" transform="rotate(-90 195.429 691.667)" fill="#00CC66" stroke="black" stroke-width="4"/>
<rect x="138.286" y="691.667" width="133.333" height="57.1429" transform="rotate(-90 138.286 691.667)" fill="#00CC66" stroke="black" stroke-width="4"/>
<rect x="81.1428" y="691.667" width="133.333" height="57.1429" transform="rotate(-90 81.1428 691.667)" fill="#00CC66" stroke="black" stroke-width="4"/>
<rect x="24" y="691.667" width="133.333" height="57.1429" transform="rotate(-90 24 691.667)" fill="#00CC66" stroke="black" stroke-width="4"/>
<rect x="366.857" y="558.333" width="133.333" height="57.1429" transform="rotate(-90 366.857 558.333)" stroke="black" stroke-width="4"/>
<rect x="309.714" y="558.333" width="133.333" height="57.1429" transform="rotate(-90 309.714 558.333)" stroke="black" stroke-width="4"/>
<rect x="252.571" y="558.333" width="133.333" height="57.1429" transform="rotate(-90 252.571 558.333)" fill="#8E8E8E" stroke="black" stroke-width="4"/>
<rect x="195.429" y="558.333" width="133.333" height="57.1429" transform="rotate(-90 195.429 558.333)" stroke="black" stroke-width="4"/>
<rect x="138.286" y="558.333" width="133.333" height="57.1429" transform="rotate(-90 138.286 558.333)" stroke="black" stroke-width="4"/>
<rect x="81.1428" y="558.333" width="133.333" height="57.1429" transform="rotate(-90 81.1428 558.333)" stroke="black" stroke-width="4"/>
<rect x="24" y="558.333" width="133.333" height="57.1429" transform="rotate(-90 24 558.333)" stroke="black" stroke-width="4"/>
<rect x="424" y="367.857" width="133.333" height="57.1429" stroke="black" stroke-width="4"/>
<rect x="424" y="310.714" width="133.333" height="57.1429" stroke="black" stroke-width="4"/>
<rect x="424" y="253.572" width="133.333" height="57.1429" fill="#AD2E24" stroke="black" stroke-width="4"/>
<rect x="424" y="196.429" width="133.333" height="57.1429" stroke="black" stroke-width="4"/>
<rect x="424" y="139.286" width="133.333" height="57.1429" stroke="black" stroke-width="4"/>
<rect x="424" y="82.1429" width="133.333" height="57.1429" stroke="black" stroke-width="4"/>
<rect x="424" y="25" width="133.333" height="57.1429" stroke="black" stroke-width="4"/>
<rect x="557.333" y="367.857" width="133.333" height="57.1429" fill="#AD2E24" stroke="black" stroke-width="4"/>
<rect x="557.333" y="310.714" width="133.333" height="57.1429" fill="#AD2E24" stroke="black" stroke-width="4"/>
<rect x="557.333" y="253.572" width="133.333" height="57.1429" fill="#AD2E24" stroke="black" stroke-width="4"/>
<rect x="557.333" y="196.429" width="133.333" height="57.1429" fill="#AD2E24" stroke="black" stroke-width="4"/>
<rect x="557.333" y="139.286" width="133.333" height="57.1429" fill="#AD2E24" stroke="black" stroke-width="4"/>
<rect x="557.333" y="82.1429" width="133.333" height="57.1429" fill="#AD2E24" stroke="black" stroke-width="4"/>
<rect x="557.333" y="25" width="133.333" height="57.1429" fill="#AD2E24" stroke="black" stroke-width="4"/>
<rect x="690.667" y="367.857" width="133.333" height="57.1429" stroke="black" stroke-width="4"/>
<rect x="690.667" y="310.714" width="133.333" height="57.1429" stroke="black" stroke-width="4"/>
<rect x="690.667" y="253.572" width="133.333" height="57.1429" fill="#8E8E8E" stroke="black" stroke-width="4"/>
<rect x="690.667" y="196.429" width="133.333" height="57.1429" stroke="black" stroke-width="4"/>
<rect x="690.667" y="139.286" width="133.333" height="57.1429" stroke="black" stroke-width="4"/>
<rect x="690.667" y="82.1429" width="133.333" height="57.1429" stroke="black" stroke-width="4"/>
<rect x="690.667" y="25" width="133.333" height="57.1429" stroke="black" stroke-width="4"/>
<rect x="1166.86" y="825" width="133.333" height="57.1429" transform="rotate(-90 1166.86 825)" stroke="black" stroke-width="4"/>
<rect x="1109.71" y="825" width="133.333" height="57.1429" transform="rotate(-90 1109.71 825)" stroke="black" stroke-width="4"/>
<rect x="1052.57" y="825" width="133.333" height="57.1429" transform="rotate(-90 1052.57 825)" stroke="black" stroke-width="4"/>
<rect x="995.429" y="825" width="133.333" height="57.1429" transform="rotate(-90 995.429 825)" stroke="black" stroke-width="4"/>
<rect x="938.286" y="825" width="133.333" height="57.1429" transform="rotate(-90 938.286 825)" fill="#8E8E8E" stroke="black" stroke-width="4"/>
<rect x="881.143" y="825" width="133.333" height="57.1429" transform="rotate(-90 881.143 825)" stroke="black" stroke-width="4"/>
<rect x="824" y="825" width="133.333" height="57.1429" transform="rotate(-90 824 825)" stroke="black" stroke-width="4"/>
<rect x="1166.86" y="691.667" width="133.333" height="57.1429" transform="rotate(-90 1166.86 691.667)" fill="#33658A" stroke="black" stroke-width="4"/>
<rect x="1109.71" y="691.667" width="133.333" height="57.1429" transform="rotate(-90 1109.71 691.667)" fill="#33658A" stroke="black" stroke-width="4"/>
<rect x="1052.57" y="691.667" width="133.333" height="57.1429" transform="rotate(-90 1052.57 691.667)" fill="#33658A" stroke="black" stroke-width="4"/>
<rect x="995.429" y="691.667" width="133.333" height="57.1429" transform="rotate(-90 995.429 691.667)" fill="#33658A" stroke="black" stroke-width="4"/>
<rect x="938.286" y="691.667" width="133.333" height="57.1429" transform="rotate(-90 938.286 691.667)" fill="#33658A" stroke="black" stroke-width="4"/>
<rect x="881.143" y="691.667" width="133.333" height="57.1429" transform="rotate(-90 881.143 691.667)" fill="#33658A" stroke="black" stroke-width="4"/>
<rect x="824" y="691.667" width="133.333" height="57.1429" transform="rotate(-90 824 691.667)" fill="#33658A" stroke="black" stroke-width="4"/>
<rect x="1166.86" y="558.333" width="133.333" height="57.1429" transform="rotate(-90 1166.86 558.333)" stroke="black" stroke-width="4"/>
<rect x="1109.71" y="558.333" width="133.333" height="57.1429" transform="rotate(-90 1109.71 558.333)" stroke="black" stroke-width="4"/>
<rect x="1052.57" y="558.333" width="133.333" height="57.1429" transform="rotate(-90 1052.57 558.333)" stroke="black" stroke-width="4"/>
<rect x="995.429" y="558.333" width="133.333" height="57.1429" transform="rotate(-90 995.429 558.333)" stroke="black" stroke-width="4"/>
<rect x="938.286" y="558.333" width="133.333" height="57.1429" transform="rotate(-90 938.286 558.333)" fill="#33658A" stroke="black" stroke-width="4"/>
<rect x="881.143" y="558.333" width="133.333" height="57.1429" transform="rotate(-90 881.143 558.333)" stroke="black" stroke-width="4"/>
<rect x="824" y="558.333" width="133.333" height="57.1429" transform="rotate(-90 824 558.333)" stroke="black" stroke-width="4"/>
<rect x="424" y="1167.86" width="133.333" height="57.1429" stroke="black" stroke-width="4"/>
<rect x="424" y="1110.71" width="133.333" height="57.1429" stroke="black" stroke-width="4"/>
<rect x="424" y="1053.57" width="133.333" height="57.1429" stroke="black" stroke-width="4"/>
<rect x="424" y="996.428" width="133.333" height="57.1429" stroke="black" stroke-width="4"/>
<rect x="424" y="939.286" width="133.333" height="57.1429" fill="#8E8E8E" stroke="black" stroke-width="4"/>
<rect x="424" y="882.143" width="133.333" height="57.1429" stroke="black" stroke-width="4"/>
<rect x="424" y="825" width="133.333" height="57.1429" stroke="black" stroke-width="4"/>
<rect x="557.333" y="1167.86" width="133.333" height="57.1429" fill="#E9CE2C" stroke="black" stroke-width="4"/>
<rect x="557.333" y="1110.71" width="133.333" height="57.1429" fill="#E9CE2C" stroke="black" stroke-width="4"/>
<rect x="557.333" y="1053.57" width="133.333" height="57.1429" fill="#E9CE2C" stroke="black" stroke-width="4"/>
<rect x="557.333" y="996.428" width="133.333" height="57.1429" fill="#E9CE2C" stroke="black" stroke-width="4"/>
<rect x="557.333" y="939.286" width="133.333" height="57.1429" fill="#E9CE2C" stroke="black" stroke-width="4"/>
<rect x="557.333" y="882.143" width="133.333" height="57.1429" fill="#E9CE2C" stroke="black" stroke-width="4"/>
<rect x="557.333" y="825" width="133.333" height="57.1429" fill="#E9CE2C" stroke="black" stroke-width="4"/>
<rect x="690.667" y="1167.86" width="133.333" height="57.1429" stroke="black" stroke-width="4"/>
<rect x="690.667" y="1110.71" width="133.333" height="57.1429" stroke="black" stroke-width="4"/>
<rect x="690.667" y="1053.57" width="133.333" height="57.1429" stroke="black" stroke-width="4"/>
<rect x="690.667" y="996.428" width="133.333" height="57.1429" stroke="black" stroke-width="4"/>
<rect x="690.667" y="939.286" width="133.333" height="57.1429" fill="#E9CE2C" stroke="black" stroke-width="4"/>
<rect x="690.667" y="882.143" width="133.333" height="57.1429" stroke="black" stroke-width="4"/>
<rect x="690.667" y="825" width="133.333" height="57.1429" stroke="black" stroke-width="4"/>
<path d="M24 825H424V1225H69C44.1472 1225 24 1204.85 24 1180V825Z" fill="#00CC66" stroke="black" stroke-width="4"/>
<rect x="46" y="847" width="356" height="356" rx="178" stroke="#017C3F" stroke-width="4"/>
<circle cx="281.143" cy="1082.14" r="31.746" fill="#017C3F"/>
<circle cx="281.143" cy="967.857" r="31.746" fill="#017C3F"/>
<circle cx="166.857" cy="967.857" r="31.746" fill="#017C3F"/>
<circle cx="166.857" cy="1082.14" r="31.746" fill="#017C3F"/>
<path d="M24 70C24 45.1472 44.1472 25 69 25H424V425H24V70Z" fill="#AD2E24" stroke="black" stroke-width="4"/>
<rect x="46" y="47" width="356" height="356" rx="178" stroke="#7E2A24" stroke-width="4"/>
<circle cx="281.143" cy="282.143" r="31.746" fill="#7E2A24"/>
<circle cx="281.143" cy="167.857" r="31.746" fill="#7E2A24"/>
<circle cx="166.857" cy="167.857" r="31.746" fill="#7E2A24"/>
<circle cx="166.857" cy="282.143" r="31.746" fill="#7E2A24"/>
<path d="M824 25H1179C1203.85 25 1224 45.1472 1224 70V425H824V25Z" fill="#33658A" stroke="black" stroke-width="4"/>
<path d="M1024 47C1122.31 47 1202 126.693 1202 225C1202 323.307 1122.31 403 1024 403C925.693 403 846 323.307 846 225C846 126.693 925.693 47 1024 47Z" stroke="#264E6B" stroke-width="4"/>
<circle cx="1081.14" cy="282.143" r="31.746" fill="#264E6B"/>
<circle cx="1081.14" cy="167.857" r="31.746" fill="#264E6B"/>
<circle cx="966.857" cy="167.857" r="31.746" fill="#264E6B"/>
<circle cx="966.857" cy="282.143" r="31.746" fill="#264E6B"/>
<path d="M824 825H1224V1180C1224 1204.85 1203.85 1225 1179 1225H824V825Z" fill="#E9CE2C" stroke="black" stroke-width="4"/>
<path d="M1024 847C1122.31 847 1202 926.693 1202 1025C1202 1123.31 1122.31 1203 1024 1203C925.693 1203 846 1123.31 846 1025C846 926.693 925.693 847 1024 847Z" stroke="#9A8923" stroke-width="4"/>
<circle cx="1081.14" cy="1082.14" r="31.746" fill="#9A8923"/>
<circle cx="1081.14" cy="967.857" r="31.746" fill="#9A8923"/>
<circle cx="966.857" cy="967.857" r="31.746" fill="#9A8923"/>
<circle cx="966.857" cy="1082.14" r="31.746" fill="#9A8923"/>
<path d="M425.205 823.665L822.665 426.205" stroke="black" stroke-width="4"/>
<line x1="425.613" y1="426.562" x2="822.755" y2="823.705" stroke="black" stroke-width="4"/>
<rect x="424" y="691.667" width="133.333" height="57.1429" transform="rotate(-90 424 691.667)" fill="#00CC66" stroke="black" stroke-width="4"/>
<rect x="557.333" y="425" width="133.333" height="57.1429" fill="#AD2E24" stroke="black" stroke-width="4"/>
<rect x="766.857" y="691.667" width="133.333" height="57.1429" transform="rotate(-90 766.857 691.667)" fill="#33658A" stroke="black" stroke-width="4"/>
<rect x="557.333" y="767.857" width="133.333" height="57.1429" fill="#E9CE2C" stroke="black" stroke-width="4"/>
<path d="M485 484.261C485 484.117 485.117 484 485.261 484H758.225C759.999 484 760.895 486.138 759.651 487.403L625.644 623.556C624.862 624.35 623.581 624.352 622.797 623.56L485.075 484.444C485.027 484.395 485 484.33 485 484.261Z" fill="#AD2E24" stroke="black" stroke-width="4"/>
<path fill-rule="evenodd" clip-rule="evenodd" d="M766 763.127C766 764.915 763.833 765.805 762.577 764.532L626.383 626.566C625.616 625.789 625.614 624.54 626.379 623.76L765.405 482.104C765.47 482.038 765.559 482 765.653 482C765.844 482 766 482.156 766 482.347V763.127Z" fill="#33658A" stroke="black" stroke-width="4"/>
<path fill-rule="evenodd" clip-rule="evenodd" d="M622.559 626.441C623.34 625.648 624.619 625.646 625.403 626.437L762.839 765.052C762.942 765.156 763 765.297 763 765.444C763 765.751 762.751 766 762.444 766H485.008C485.004 766 485 765.996 485 765.992C485 765.99 485.001 765.988 485.002 765.987L622.559 626.441Z" fill="#E9CE2C" stroke="black" stroke-width="4"/>
<path fill-rule="evenodd" clip-rule="evenodd" d="M621.613 623.182C622.382 623.96 622.384 625.211 621.617 625.991L485.426 764.515C484.171 765.792 482 764.903 482 763.113V486.867C482 485.08 484.165 484.19 485.422 485.461L621.613 623.182Z" fill="#00CC66" stroke="black" stroke-width="4"/>
<rect x="481" y="482" width="286" height="286" stroke="black" stroke-width="4"/>
<circle cx="966.857" cy="491.667" r="22.2222" fill="#264E6B" stroke="black" stroke-width="4"/>
<circle cx="1195.43" cy="625.635" r="22.2222" fill="#D9D9D9" stroke="black" stroke-width="4"/>
<circle cx="966.857" cy="758.333" r="22.2222" fill="#D9D9D9" stroke="black" stroke-width="4"/>
<circle cx="757.333" cy="967.857" r="22.2222" fill="#9A8923" stroke="black" stroke-width="4"/>
<circle cx="491.302" cy="967.857" r="22.2222" fill="#D9D9D9" stroke="black" stroke-width="4"/>
<circle cx="281.143" cy="758.333" r="22.2222" fill="#017C3F" stroke="black" stroke-width="4"/>
<circle cx="52.5714" cy="625.635" r="22.2222" fill="#D9D9D9" stroke="black" stroke-width="4"/>
<circle cx="281.143" cy="491.667" r="22.2222" fill="#D9D9D9" stroke="black" stroke-width="4"/>
<circle cx="491.302" cy="282.143" r="22.2222" fill="#7E2A24" stroke="black" stroke-width="4"/>
<circle cx="624" cy="53.5715" r="22.2222" fill="#D9D9D9" stroke="black" stroke-width="4"/>
<circle cx="624" cy="1196.43" r="22.2222" fill="#D9D9D9" stroke="black" stroke-width="4"/>
<circle cx="757.333" cy="282.143" r="22.2222" fill="#D9D9D9" stroke="black" stroke-width="4"/>
</svg>
